<svg width="128" height="128" viewBox="0 0 128 128" fill="none" xmlns="http://www.w3.org/2000/svg">
<g id="location-0">
<rect x="0.5" y="0.5" width="127" height="127" stroke="black"/>
<path id="locationPath" d="M66.6476 96.472C73.4609 87.9233 89 67.2041 89 55.5662C89 41.4515 77.5781 30 63.5 30C49.4219 30 38 41.4515 38 55.5662C38 67.2041 53.5391 87.9233 60.3524 96.472C61.9859 98.5093 65.0141 98.5093 66.6476 96.472ZM63.5 47.0441C65.7543 47.0441 67.9163 47.942 69.5104 49.5402C71.1045 51.1384 72 53.306 72 55.5662C72 57.8264 71.1045 59.994 69.5104 61.5922C67.9163 63.1904 65.7543 64.0882 63.5 64.0882C61.2457 64.0882 59.0837 63.1904 57.4896 61.5922C55.8955 59.994 55 57.8264 55 55.5662C55 53.306 55.8955 51.1384 57.4896 49.5402C59.0837 47.942 61.2457 47.0441 63.5 47.0441Z" fill="black"/>
<path id="rectangle" d="M117.5 87.5H86.5V116.5H117.5V87.5Z"/>
</g>
</svg>
