<svg width="128" height="128" viewBox="0 0 128 128" fill="none" xmlns="http://www.w3.org/2000/svg">
<g id="chat-1">
<rect width="128" height="128" fill="white"/>
<path id="chat-bouble" fill-rule="evenodd" clip-rule="evenodd" d="M6.4 122.15L6.40009 82.5497C6.40013 75.4805 11.5817 70.8497 19.4501 70.8497L45.8925 70.8496L68.0501 70.8497C73.8429 70.8496 81.1001 76.1562 81.1001 82.5497L81.1001 108.649C81.1001 115.568 74.9892 122.15 68.05 122.15H6.4ZM24.85 91.9997C22.3647 91.9997 20.35 94.0144 20.35 96.4997C20.35 98.9849 22.3647 101 24.85 101C27.3353 101 29.35 98.9849 29.35 96.4997C29.35 94.0144 27.3353 91.9997 24.85 91.9997ZM37.9 102.35C37.9 99.8643 39.9147 97.8496 42.4 97.8496C44.8853 97.8496 46.9 99.8643 46.9 102.35C46.9 104.835 44.8853 106.85 42.4 106.85C39.9147 106.85 37.9 104.835 37.9 102.35ZM61.3 103.7C58.8147 103.7 56.8 105.714 56.8 108.2C56.8 110.685 58.8147 112.7 61.3 112.7C63.7853 112.7 65.8001 110.685 65.8001 108.2C65.8001 105.714 63.7853 103.7 61.3 103.7Z" fill="black"/>
<path id="chat-bouble_2" fill-rule="evenodd" clip-rule="evenodd" d="M121.6 114.95L121.6 92.0237C121.6 87.931 118.916 85.2501 114.839 85.25L101.14 85.25L89.6608 85.25C86.6597 85.25 82.9 88.3222 82.9 92.0237L82.9 107.134C82.9 111.139 86.0659 114.95 89.6609 114.95H121.6ZM112.042 97.4948C113.329 97.4948 114.373 98.6612 114.373 100.1C114.373 101.539 113.329 102.705 112.042 102.705C110.754 102.705 109.71 101.539 109.71 100.1C109.71 98.6612 110.754 97.4948 112.042 97.4948ZM105.281 103.487C105.281 102.048 104.237 100.882 102.949 100.882C101.662 100.882 100.618 102.048 100.618 103.487C100.618 104.926 101.662 106.092 102.949 106.092C104.237 106.092 105.281 104.926 105.281 103.487ZM93.1578 104.268C94.4454 104.268 95.4892 105.435 95.4892 106.874C95.4892 108.313 94.4454 109.479 93.1578 109.479C91.8703 109.479 90.8265 108.313 90.8265 106.874C90.8265 105.435 91.8703 104.268 93.1578 104.268Z" fill="black"/>
</g>
</svg>
