<svg width="128" height="128" viewBox="0 0 128 128" fill="none" xmlns="http://www.w3.org/2000/svg">
<g id="chat-0">
<rect width="128" height="128" fill="white"/>
<path id="chat-bouble" fill-rule="evenodd" clip-rule="evenodd" d="M6.4 89.9504L6.40009 50.3504C6.40013 43.2813 11.5817 38.6505 19.4501 38.6504L45.8925 38.6504L68.0501 38.6504C73.8429 38.6504 81.1001 43.957 81.1001 50.3504L81.1001 76.4501C81.1001 83.3685 74.9892 89.9504 68.05 89.9504H6.4ZM24.85 59.8004C22.3647 59.8004 20.35 61.8152 20.35 64.3004C20.35 66.7857 22.3647 68.8004 24.85 68.8004C27.3353 68.8004 29.35 66.7857 29.35 64.3004C29.35 61.8152 27.3353 59.8004 24.85 59.8004ZM37.9 64.3004C37.9 61.8152 39.9147 59.8004 42.4 59.8004C44.8853 59.8004 46.9 61.8152 46.9 64.3004C46.9 66.7857 44.8853 68.8004 42.4 68.8004C39.9147 68.8004 37.9 66.7857 37.9 64.3004ZM61.3 59.8004C58.8147 59.8004 56.8 61.8152 56.8 64.3004C56.8 66.7857 58.8147 68.8004 61.3 68.8004C63.7853 68.8004 65.8001 66.7857 65.8001 64.3004C65.8001 61.8152 63.7853 59.8004 61.3 59.8004Z" fill="black"/>
<path id="chat-bouble_2" fill-rule="evenodd" clip-rule="evenodd" d="M121.6 104.35L121.6 81.4241C121.6 77.3314 118.916 74.6505 114.839 74.6504L101.14 74.6504L89.6608 74.6504C86.6597 74.6504 82.9 77.7226 82.9 81.4241L82.9 96.5345C82.9 100.54 86.0659 104.35 89.6609 104.35H121.6ZM112.042 86.8952C113.329 86.8952 114.373 88.0616 114.373 89.5004C114.373 90.9393 113.329 92.1057 112.042 92.1057C110.754 92.1057 109.71 90.9393 109.71 89.5004C109.71 88.0616 110.754 86.8952 112.042 86.8952ZM105.281 89.5004C105.281 88.0616 104.237 86.8952 102.949 86.8952C101.662 86.8952 100.618 88.0616 100.618 89.5004C100.618 90.9393 101.662 92.1057 102.949 92.1057C104.237 92.1057 105.281 90.9393 105.281 89.5004ZM93.1578 86.8952C94.4454 86.8952 95.4892 88.0616 95.4892 89.5004C95.4892 90.9393 94.4454 92.1057 93.1578 92.1057C91.8703 92.1057 90.8265 90.9393 90.8265 89.5004C90.8265 88.0616 91.8703 86.8952 93.1578 86.8952Z" fill="black"/>
</g>
</svg>
