<svg width="128" height="128" viewBox="0 0 128 128" fill="none" xmlns="http://www.w3.org/2000/svg">
<g id="chat-3">
<rect width="128" height="128" fill="white"/>
<path id="chat-bouble" fill-rule="evenodd" clip-rule="evenodd" d="M6.4 102.55L6.40009 62.9501C6.40013 55.8809 11.5817 51.2501 19.4501 51.2501L45.8925 51.25L68.0501 51.2501C73.8429 51.25 81.1001 56.5566 81.1001 62.9501L81.1001 89.0498C81.1001 95.9681 74.9892 102.55 68.05 102.55H6.4ZM24.85 72.4C22.3647 72.4 20.35 74.4148 20.35 76.9001C20.35 79.3853 22.3647 81.4001 24.85 81.4001C27.3353 81.4001 29.35 79.3853 29.35 76.9001C29.35 74.4148 27.3353 72.4 24.85 72.4ZM37.9 78.7C37.9 76.2147 39.9147 74.2 42.4 74.2C44.8853 74.2 46.9 76.2147 46.9 78.7C46.9 81.1853 44.8853 83.2 42.4 83.2C39.9147 83.2 37.9 81.1853 37.9 78.7ZM61.75 76.9001C59.2647 76.9001 57.25 78.9148 57.25 81.4001C57.25 83.8853 59.2647 85.9001 61.75 85.9001C64.2353 85.9001 66.25 83.8853 66.25 81.4001C66.25 78.9148 64.2353 76.9001 61.75 76.9001Z" fill="black"/>
<path id="chat-bouble_2" fill-rule="evenodd" clip-rule="evenodd" d="M121.6 109.75L121.6 86.8235C121.6 82.7308 118.916 80.0499 114.839 80.0498L101.14 80.0498L89.6608 80.0498C86.6597 80.0498 82.9 83.122 82.9 86.8235L82.9 101.934C82.9 105.939 86.0659 109.75 89.6609 109.75H121.6ZM112.042 92.2946C113.329 92.2946 114.373 93.461 114.373 94.8998C114.373 96.3387 113.329 97.5051 112.042 97.5051C110.754 97.5051 109.71 96.3387 109.71 94.8998C109.71 93.461 110.754 92.2946 112.042 92.2946ZM105.281 95.9419C105.281 94.5031 104.237 93.3366 102.949 93.3366C101.662 93.3366 100.618 94.5031 100.618 95.9419C100.618 97.3808 101.662 98.5472 102.949 98.5472C104.237 98.5472 105.281 97.3808 105.281 95.9419ZM92.9247 94.8998C94.2123 94.8998 95.256 96.0663 95.256 97.5051C95.256 98.9439 94.2123 100.11 92.9247 100.11C91.6372 100.11 90.5934 98.9439 90.5934 97.5051C90.5934 96.0663 91.6372 94.8998 92.9247 94.8998Z" fill="black"/>
</g>
</svg>
