<svg width="128" height="128" viewBox="0 0 128 128" fill="none" xmlns="http://www.w3.org/2000/svg">
<g id="chat-2">
<rect width="128" height="128" fill="white"/>
<path id="chat-bouble" fill-rule="evenodd" clip-rule="evenodd" d="M6.4 56.9504L6.40009 17.3504C6.40013 10.2813 11.5817 5.6505 19.4501 5.65044L45.8925 5.65042L68.0501 5.65044C73.8429 5.65041 81.1001 10.957 81.1001 17.3504L81.1001 43.4501C81.1001 50.3685 74.9892 56.9504 68.05 56.9504H6.4ZM24.85 26.8004C22.3647 26.8004 20.35 28.8152 20.35 31.3004C20.35 33.7857 22.3647 35.8004 24.85 35.8004C27.3353 35.8004 29.35 33.7857 29.35 31.3004C29.35 28.8152 27.3353 26.8004 24.85 26.8004ZM37.9 26.3504C37.9 23.8652 39.9147 21.8504 42.4 21.8504C44.8853 21.8504 46.9 23.8652 46.9 26.3504C46.9 28.8357 44.8853 30.8505 42.4 30.8505C39.9147 30.8505 37.9 28.8357 37.9 26.3504ZM61.3 16.4504C58.8147 16.4504 56.8 18.4651 56.8 20.9504C56.8 23.4357 58.8147 25.4504 61.3 25.4504C63.7853 25.4504 65.8 23.4357 65.8 20.9504C65.8 18.4651 63.7853 16.4504 61.3 16.4504Z" fill="black"/>
<path id="chat-bouble_2" fill-rule="evenodd" clip-rule="evenodd" d="M121.6 71.3504L121.6 48.4241C121.6 44.3314 118.916 41.6505 114.839 41.6504L101.14 41.6504L89.6608 41.6504C86.6597 41.6504 82.9 44.7226 82.9 48.4241L82.9 63.5345C82.9 67.5398 86.0659 71.3504 89.6609 71.3504H121.6ZM112.042 53.8952C113.329 53.8952 114.373 55.0616 114.373 56.5004C114.373 57.9393 113.329 59.1057 112.042 59.1057C110.754 59.1057 109.71 57.9393 109.71 56.5004C109.71 55.0616 110.754 53.8952 112.042 53.8952ZM105.281 53.6346C105.281 52.1958 104.237 51.0294 102.949 51.0294C101.662 51.0294 100.618 52.1958 100.618 53.6346C100.618 55.0735 101.662 56.2399 102.949 56.2399C104.237 56.2399 105.281 55.0735 105.281 53.6346ZM93.1578 47.903C94.4454 47.903 95.4892 49.0694 95.4892 50.5083C95.4892 51.9471 94.4454 53.1135 93.1578 53.1135C91.8703 53.1135 90.8265 51.9471 90.8265 50.5083C90.8265 49.0694 91.8703 47.903 93.1578 47.903Z" fill="black"/>
</g>
</svg>
