<svg width="128" height="128" viewBox="0 0 128 128" fill="none" xmlns="http://www.w3.org/2000/svg">
<g id="chat-4">
<rect width="128" height="128" fill="white"/>
<path id="chat-bouble" fill-rule="evenodd" clip-rule="evenodd" d="M6.4 83.7004L6.40009 44.1004C6.40013 37.0313 11.5817 32.4005 19.4501 32.4004L45.8925 32.4004L68.0501 32.4004C73.8429 32.4004 81.1001 37.707 81.1001 44.1004L81.1001 70.2001C81.1001 77.1185 74.9892 83.7004 68.05 83.7004H6.4ZM24.85 53.5504C22.3647 53.5504 20.35 55.5652 20.35 58.0504C20.35 60.5357 22.3647 62.5504 24.85 62.5504C27.3353 62.5504 29.35 60.5357 29.35 58.0504C29.35 55.5652 27.3353 53.5504 24.85 53.5504ZM37.9 56.2504C37.9 53.7651 39.9147 51.7504 42.4 51.7504C44.8853 51.7504 46.9 53.7651 46.9 56.2504C46.9 58.7357 44.8853 60.7504 42.4 60.7504C39.9147 60.7504 37.9 58.7357 37.9 56.2504ZM61.3 50.8504C58.8147 50.8504 56.8 52.8651 56.8 55.3504C56.8 57.8357 58.8147 59.8504 61.3 59.8504C63.7853 59.8504 65.8 57.8357 65.8 55.3504C65.8 52.8651 63.7853 50.8504 61.3 50.8504Z" fill="black"/>
<path id="chat-bouble_2" fill-rule="evenodd" clip-rule="evenodd" d="M121.6 93.6004L121.6 70.6741C121.6 66.5814 118.916 63.9005 114.839 63.9004L101.14 63.9004L89.6608 63.9004C86.6597 63.9004 82.9 66.9726 82.9 70.6741L82.9 85.7845C82.9 89.7898 86.0659 93.6004 89.6609 93.6004H121.6ZM112.042 76.1452C113.329 76.1452 114.373 77.3116 114.373 78.7504C114.373 80.1893 113.329 81.3557 112.042 81.3557C110.754 81.3557 109.71 80.1893 109.71 78.7504C109.71 77.3116 110.754 76.1452 112.042 76.1452ZM105.281 78.7504C105.281 77.3116 104.237 76.1452 102.949 76.1452C101.662 76.1452 100.618 77.3116 100.618 78.7504C100.618 80.1893 101.662 81.3557 102.949 81.3557C104.237 81.3557 105.281 80.1893 105.281 78.7504ZM93.1578 76.1452C94.4454 76.1452 95.4892 77.3116 95.4892 78.7504C95.4892 80.1893 94.4454 81.3557 93.1578 81.3557C91.8703 81.3557 90.8265 80.1893 90.8265 78.7504C90.8265 77.3116 91.8703 76.1452 93.1578 76.1452Z" fill="black"/>
</g>
</svg>
