<svg width="128" height="128" viewBox="0 0 128 128" fill="none" xmlns="http://www.w3.org/2000/svg">
<g id="map-marker-4">
<rect width="128" height="128" fill="white"/>
<g id="Ellipse 163">
<path id="Vector" d="M67.5467 91.181C75.3905 84.3941 93.4796 67.7825 95.3817 56.9955C97.6885 43.913 88.7528 31.3932 75.4322 29.0444C62.1117 26.6956 49.4329 35.4042 47.1261 48.4868C45.224 59.2737 56.5407 81.0704 61.5902 90.1307C62.8029 92.2916 65.6681 92.7968 67.5467 91.181ZM72.6467 44.8422C74.7797 45.2183 76.6786 46.4112 77.9257 48.1585C79.1728 49.9058 79.6659 52.0643 79.2965 54.1593C78.9271 56.2542 77.7255 58.1139 75.956 59.3293C74.1865 60.5446 71.9941 61.0161 69.8611 60.64C67.728 60.2639 65.8291 59.071 64.582 57.3237C63.335 55.5765 62.8419 53.4179 63.2113 51.323C63.5807 49.2281 64.7823 47.3684 66.5517 46.153C68.3212 44.9376 70.5136 44.4661 72.6467 44.8422Z" fill="#FF0D0D"/>
<circle id="Ellipse 163_2" cx="64" cy="91.0003" r="1" transform="rotate(10 64 91.0003)" fill="#D9D9D9"/>
</g>
</g>
</svg>
