<svg width="128" height="128" viewBox="0 0 128 128" fill="none" xmlns="http://www.w3.org/2000/svg">
<g id="map-marker-0">
<rect width="128" height="128" fill="white"/>
<g id="Ellipse 163">
<path id="Vector" d="M67.5242 90.5619C74.0703 82.5161 89 63.0156 89 52.0623C89 38.7779 78.026 28 64.5 28C50.974 28 40 38.7779 40 52.0623C40 63.0156 54.9297 82.5161 61.4758 90.5619C63.0453 92.4794 65.9547 92.4794 67.5242 90.5619ZM64.5 44.0415C66.6659 44.0415 68.7432 44.8866 70.2747 46.3907C71.8062 47.8949 72.6667 49.935 72.6667 52.0623C72.6667 54.1895 71.8062 56.2296 70.2747 57.7338C68.7432 59.238 66.6659 60.083 64.5 60.083C62.3341 60.083 60.2568 59.238 58.7253 57.7338C57.1937 56.2296 56.3333 54.1895 56.3333 52.0623C56.3333 49.935 57.1937 47.8949 58.7253 46.3907C60.2568 44.8866 62.3341 44.0415 64.5 44.0415Z" fill="#FF0D0D"/>
<circle id="Ellipse 163_2" cx="64" cy="91" r="1" fill="#D9D9D9"/>
</g>
</g>
</svg>
