<svg width="128" height="128" viewBox="0 0 128 128" fill="none" xmlns="http://www.w3.org/2000/svg">
<g id="map-marker-3">
<rect width="128" height="128" fill="white"/>
<g id="Ellipse 163">
<path id="Vector" d="M67.2906 89.6648C71.5313 80.1988 80.9052 57.4988 78.0702 46.9186C74.632 34.0869 61.2424 26.5165 48.1773 30.0173C35.1121 33.5181 27.3016 46.769 30.7399 59.6008C33.5748 70.1809 53.0429 85.1528 61.4483 91.2302C63.4606 92.6761 66.2709 91.9231 67.2906 89.6648ZM52.3291 45.5122C54.4212 44.9517 56.6464 45.2303 58.5151 46.2868C60.3837 47.3434 61.7429 49.0913 62.2934 51.146C62.844 53.2008 62.5409 55.3941 61.4509 57.2434C60.3608 59.0927 58.5731 60.4466 56.481 61.0072C54.3888 61.5677 52.1637 61.2891 50.295 60.2326C48.4263 59.176 47.0672 57.4281 46.5166 55.3734C45.9661 53.3186 46.2692 51.1253 47.3592 49.276C48.4493 47.4267 50.237 46.0728 52.3291 45.5122Z" fill="#FF0D0D"/>
<circle id="Ellipse 163_2" cx="63.9999" cy="91.0001" r="1" transform="rotate(-15 63.9999 91.0001)" fill="#D9D9D9"/>
</g>
</g>
</svg>
