<svg width="128" height="128" viewBox="0 0 128 128" fill="none" xmlns="http://www.w3.org/2000/svg">
<g id="map-marker-5">
<rect width="128" height="128" fill="white"/>
<g id="Ellipse 163">
<path id="Vector" d="M67.4591 90.1956C73.1283 81.5096 85.9378 60.5554 84.7929 49.6621C83.4043 36.4505 71.3639 26.8787 57.9119 28.2926C44.46 29.7064 34.6727 41.5724 36.0613 54.784C37.2063 65.6773 54.0925 83.5104 61.4438 90.8279C63.2051 92.5708 66.0986 92.2667 67.4591 90.1956ZM59.5887 44.2462C61.7428 44.0198 63.897 44.6431 65.5774 45.9789C67.2577 47.3148 68.3267 49.2538 68.5491 51.3694C68.7714 53.485 68.129 55.6038 66.763 57.2599C65.3971 58.9159 63.4196 59.9734 61.2655 60.1998C59.1114 60.4262 56.9573 59.803 55.2769 58.4671C53.5965 57.1313 52.5275 55.1923 52.3052 53.0767C52.0828 50.9611 52.7253 48.8422 54.0912 47.1862C55.4571 45.5301 57.4347 44.4726 59.5887 44.2462Z" fill="#FF0D0D"/>
<circle id="Ellipse 163_2" cx="64" cy="90.9994" r="1" transform="rotate(-6 64 90.9994)" fill="#D9D9D9"/>
</g>
</g>
</svg>
