<svg width="128" height="128" viewBox="0 0 128 128" fill="none" xmlns="http://www.w3.org/2000/svg">
<g id="map-marker-1">
<rect width="128" height="128" fill="white"/>
<g id="Ellipse 163">
<path id="Vector" d="M67.0147 60.2841C77.1654 58.1509 101.04 52.3917 107.933 43.8794C116.293 33.5555 114.548 18.2733 104.036 9.76112C93.5242 1.24891 78.2131 2.71877 69.853 13.0427C62.9598 21.555 62.2903 46.1053 62.3142 56.4777C62.3272 58.9555 64.5882 60.7865 67.0147 60.2841ZM93.9407 22.2277C95.6239 23.5908 96.7064 25.5547 96.95 27.6876C97.1937 29.8204 96.5785 31.9473 95.2397 33.6005C93.901 35.2536 91.9485 36.2976 89.8116 36.5028C87.6748 36.7079 85.5287 36.0574 83.8454 34.6943C82.1622 33.3313 81.0797 31.3673 80.836 29.2345C80.5924 27.1017 81.2076 24.9747 82.5464 23.3216C83.8851 21.6684 85.8376 20.6244 87.9745 20.4193C90.1113 20.2141 92.2574 20.8647 93.9407 22.2277Z" fill="#FF0D0D"/>
<circle id="Ellipse 163_2" cx="64.0001" cy="58.4065" r="1" transform="rotate(39 64.0001 58.4065)" fill="#D9D9D9"/>
</g>
</g>
</svg>
