<svg width="128" height="128" viewBox="0 0 128 128" fill="none" xmlns="http://www.w3.org/2000/svg">
<g id="map-marker-5">
<rect width="128" height="128" fill="white"/>
<g id="Ellipse 163">
<path id="Vector" d="M67.5423 90.7467C74.5005 83.0545 90.4303 64.3622 91.0036 53.4238C91.6989 40.1577 81.304 28.8202 67.7965 28.1123C54.289 27.4044 42.766 37.5932 42.0708 50.8594C41.4975 61.7977 55.3862 82.0528 61.5022 90.4302C62.9692 92.4272 65.8746 92.5794 67.5423 90.7467ZM66.957 44.1318C69.1199 44.2452 71.1501 45.1978 72.6008 46.7801C74.0515 48.3623 74.804 50.4447 74.6927 52.569C74.5813 54.6933 73.6153 56.6856 72.0071 58.1076C70.399 59.5296 68.2804 60.2647 66.1174 60.1514C63.9544 60.038 61.9243 59.0854 60.4736 57.5031C59.0228 55.9209 58.2704 53.8385 58.3817 51.7142C58.493 49.5899 59.459 47.5976 61.0672 46.1756C62.6754 44.7537 64.794 44.0185 66.957 44.1318Z" fill="#FF0D0D"/>
<circle id="Ellipse 163_2" cx="64" cy="91.0002" r="1" transform="rotate(3 64 91.0002)" fill="#D9D9D9"/>
</g>
</g>
</svg>
