<svg width="128" height="128" viewBox="0 0 128 128" fill="none" xmlns="http://www.w3.org/2000/svg">
<g id="map-marker-2">
<rect width="128" height="128" fill="white"/>
<g id="Ellipse 163">
<path id="Vector" d="M66.8395 55.547C77.1375 54.3066 101.423 50.6502 109.032 42.771C118.26 33.2151 117.853 17.8389 108.123 8.44296C98.3934 -0.953019 83.0124 -0.823205 73.7843 8.73278C66.1755 16.612 63.3689 41.0105 62.4886 51.3454C62.2857 53.815 64.3785 55.836 66.8395 55.547ZM96.9798 19.9823C98.5379 21.4868 99.4451 23.5377 99.5019 25.6836C99.5587 27.8295 98.7605 29.8947 97.2828 31.425C95.8051 32.9552 93.7689 33.825 91.6224 33.8431C89.4758 33.8612 87.3945 33.0261 85.8365 31.5216C84.2784 30.017 83.3712 27.9661 83.3144 25.8202C83.2576 23.6743 84.0558 21.6091 85.5335 20.0789C87.0112 18.5487 89.0474 17.6788 91.194 17.6607C93.3406 17.6426 95.4218 18.4777 96.9798 19.9823Z" fill="#FF0D0D"/>
<circle id="Ellipse 163_2" cx="64" cy="53.414" r="1" transform="rotate(44 64 53.414)" fill="#D9D9D9"/>
</g>
</g>
</svg>
